<svg aria-roledescription="flowchart-v2" role="graphics-document document" viewBox="-7.5 -8 771.875 344" style="max-width: 771.875px;" xmlns="http://www.w3.org/2000/svg" width="100%" id="mermaid-svg-1769129106823-ma7dlwfro"><style>#mermaid-svg-1769129106823-ma7dlwfro{font-family:"trebuchet ms",verdana,arial,sans-serif;font-size:16px;fill:rgba(228, 228, 228, 0.92);}#mermaid-svg-1769129106823-ma7dlwfro .error-icon{fill:#141414;}#mermaid-svg-1769129106823-ma7dlwfro .error-text{fill:#e34671;stroke:#e34671;}#mermaid-svg-1769129106823-ma7dlwfro .edge-thickness-normal{stroke-width:2px;}#mermaid-svg-1769129106823-ma7dlwfro .edge-thickness-thick{stroke-width:3.5px;}#mermaid-svg-1769129106823-ma7dlwfro .edge-pattern-solid{stroke-dasharray:0;}#mermaid-svg-1769129106823-ma7dlwfro .edge-pattern-dashed{stroke-dasharray:3;}#mermaid-svg-1769129106823-ma7dlwfro .edge-pattern-dotted{stroke-dasharray:2;}#mermaid-svg-1769129106823-ma7dlwfro .marker{fill:rgba(228, 228, 228, 0.65);stroke:rgba(228, 228, 228, 0.65);}#mermaid-svg-1769129106823-ma7dlwfro .marker.cross{stroke:rgba(228, 228, 228, 0.65);}#mermaid-svg-1769129106823-ma7dlwfro svg{font-family:"trebuchet ms",verdana,arial,sans-serif;font-size:16px;}#mermaid-svg-1769129106823-ma7dlwfro .label{font-family:"trebuchet ms",verdana,arial,sans-serif;color:rgba(228, 228, 228, 0.92);}#mermaid-svg-1769129106823-ma7dlwfro .cluster-label text{fill:rgba(228, 228, 228, 0.92);}#mermaid-svg-1769129106823-ma7dlwfro .cluster-label span,#mermaid-svg-1769129106823-ma7dlwfro p{color:rgba(228, 228, 228, 0.92);}#mermaid-svg-1769129106823-ma7dlwfro .label text,#mermaid-svg-1769129106823-ma7dlwfro span,#mermaid-svg-1769129106823-ma7dlwfro p{fill:rgba(228, 228, 228, 0.92);color:rgba(228, 228, 228, 0.92);}#mermaid-svg-1769129106823-ma7dlwfro .node rect,#mermaid-svg-1769129106823-ma7dlwfro .node circle,#mermaid-svg-1769129106823-ma7dlwfro .node ellipse,#mermaid-svg-1769129106823-ma7dlwfro .node polygon,#mermaid-svg-1769129106823-ma7dlwfro .node path{fill:#181818;stroke:#454545;stroke-width:1px;}#mermaid-svg-1769129106823-ma7dlwfro .flowchart-label text{text-anchor:middle;}#mermaid-svg-1769129106823-ma7dlwfro .node .label{text-align:center;}#mermaid-svg-1769129106823-ma7dlwfro .node.clickable{cursor:pointer;}#mermaid-svg-1769129106823-ma7dlwfro .arrowheadPath{fill:#e7e7e7;}#mermaid-svg-1769129106823-ma7dlwfro .edgePath .path{stroke:rgba(228, 228, 228, 0.65);stroke-width:2.0px;}#mermaid-svg-1769129106823-ma7dlwfro .flowchart-link{stroke:rgba(228, 228, 228, 0.65);fill:none;}#mermaid-svg-1769129106823-ma7dlwfro .edgeLabel{background-color:#18181899;text-align:center;}#mermaid-svg-1769129106823-ma7dlwfro .edgeLabel rect{opacity:0.5;background-color:#18181899;fill:#18181899;}#mermaid-svg-1769129106823-ma7dlwfro .labelBkg{background-color:rgba(24, 24, 24, 0.5);}#mermaid-svg-1769129106823-ma7dlwfro .cluster rect{fill:rgba(64, 64, 64, 0.47);stroke:#454545;stroke-width:1px;}#mermaid-svg-1769129106823-ma7dlwfro .cluster text{fill:rgba(228, 228, 228, 0.92);}#mermaid-svg-1769129106823-ma7dlwfro .cluster span,#mermaid-svg-1769129106823-ma7dlwfro p{color:rgba(228, 228, 228, 0.92);}#mermaid-svg-1769129106823-ma7dlwfro div.mermaidTooltip{position:absolute;text-align:center;max-width:200px;padding:2px;font-family:"trebuchet ms",verdana,arial,sans-serif;font-size:12px;background:rgba(64, 64, 64, 0.6);border:1px solid #454545;border-radius:2px;pointer-events:none;z-index:100;}#mermaid-svg-1769129106823-ma7dlwfro .flowchartTitleText{text-anchor:middle;font-size:18px;fill:rgba(228, 228, 228, 0.92);}#mermaid-svg-1769129106823-ma7dlwfro :root{--mermaid-font-family:"trebuchet ms",verdana,arial,sans-serif;}</style><g><marker orient="auto" markerHeight="12" markerWidth="12" markerUnits="userSpaceOnUse" refY="5" refX="6" viewBox="0 0 10 10" class="marker flowchart" id="mermaid-svg-1769129106823-ma7dlwfro_flowchart-pointEnd"><path style="stroke-width: 1; stroke-dasharray: 1, 0;" class="arrowMarkerPath" d="M 0 0 L 10 5 L 0 10 z"/></marker><marker orient="auto" markerHeight="12" markerWidth="12" markerUnits="userSpaceOnUse" refY="5" refX="4.5" viewBox="0 0 10 10" class="marker flowchart" id="mermaid-svg-1769129106823-ma7dlwfro_flowchart-pointStart"><path style="stroke-width: 1; stroke-dasharray: 1, 0;" class="arrowMarkerPath" d="M 0 5 L 10 10 L 10 0 z"/></marker><marker orient="auto" markerHeight="11" markerWidth="11" markerUnits="userSpaceOnUse" refY="5" refX="11" viewBox="0 0 10 10" class="marker flowchart" id="mermaid-svg-1769129106823-ma7dlwfro_flowchart-circleEnd"><circle style="stroke-width: 1; stroke-dasharray: 1, 0;" class="arrowMarkerPath" r="5" cy="5" cx="5"/></marker><marker orient="auto" markerHeight="11" markerWidth="11" markerUnits="userSpaceOnUse" refY="5" refX="-1" viewBox="0 0 10 10" class="marker flowchart" id="mermaid-svg-1769129106823-ma7dlwfro_flowchart-circleStart"><circle style="stroke-width: 1; stroke-dasharray: 1, 0;" class="arrowMarkerPath" r="5" cy="5" cx="5"/></marker><marker orient="auto" markerHeight="11" markerWidth="11" markerUnits="userSpaceOnUse" refY="5.2" refX="12" viewBox="0 0 11 11" class="marker cross flowchart" id="mermaid-svg-1769129106823-ma7dlwfro_flowchart-crossEnd"><path style="stroke-width: 2; stroke-dasharray: 1, 0;" class="arrowMarkerPath" d="M 1,1 l 9,9 M 10,1 l -9,9"/></marker><marker orient="auto" markerHeight="11" markerWidth="11" markerUnits="userSpaceOnUse" refY="5.2" refX="-1" viewBox="0 0 11 11" class="marker cross flowchart" id="mermaid-svg-1769129106823-ma7dlwfro_flowchart-crossStart"><path style="stroke-width: 2; stroke-dasharray: 1, 0;" class="arrowMarkerPath" d="M 1,1 l 9,9 M 10,1 l -9,9"/></marker><g class="root"><g class="clusters"/><g class="edgePaths"/><g class="edgeLabels"/><g class="nodes"><g transform="translate(-7.5, -8)" class="root"><g class="clusters"><g id="Training" class="cluster default flowchart-label"><rect height="328" width="755.875" y="8" x="8" ry="0" rx="0" style=""/><g transform="translate(385.9375, 8)" class="cluster-label"><text style=""><tspan class="row" x="0" dy="1em" xml:space="preserve">TRAINING (Teacher Forcing - Parallel)</tspan></text></g></g><g id="Enc_T" class="cluster default flowchart-label"><rect height="288" width="287.421875" y="28" x="33" ry="0" rx="0" style=""/><g transform="translate(176.7109375, 28)" class="cluster-label"><text style=""><tspan class="row" x="0" dy="1em" xml:space="preserve">Encoder</tspan></text></g></g><g id="Dec_T" class="cluster default flowchart-label"><rect height="187" width="171.7265625" y="28" x="385.015625" ry="0" rx="0" style=""/><g transform="translate(470.87890625, 28)" class="cluster-label"><text style=""><tspan class="row" x="0" dy="1em" xml:space="preserve">Decoders - NOT chained</tspan></text></g></g></g><g class="edgePaths"><path marker-end="url(#mermaid-svg-1769129106823-ma7dlwfro_flowchart-pointEnd)" style="fill:none;" class="edge-thickness-normal edge-pattern-solid flowchart-link LS-tok_t LE-x1_t" id="L-tok_t-x1_t-0" d="M101.05,208.25L108.366,198.104C115.682,187.958,130.314,167.667,140.913,157.521C151.512,147.375,158.079,147.375,161.362,147.375L164.645,147.375"/><path marker-end="url(#mermaid-svg-1769129106823-ma7dlwfro_flowchart-pointEnd)" style="fill:none;" class="edge-thickness-normal edge-pattern-solid flowchart-link LS-x1_t LE-x2_t" id="L-x1_t-x2_t-0" d="M195.73,130.625L200.834,122.146C205.937,113.667,216.144,96.708,225.587,88.229C235.029,79.75,243.706,79.75,248.045,79.75L252.384,79.75"/><path marker-end="url(#mermaid-svg-1769129106823-ma7dlwfro_flowchart-pointEnd)" style="fill:none;" class="edge-thickness-normal edge-pattern-solid flowchart-link LS-x2_t LE-dec2_t" id="L-x2_t-dec2_t-0" d="M289.09,79.75L294.312,79.75C299.534,79.75,309.978,79.75,323.039,79.75C336.1,79.75,351.779,79.75,367.457,79.75C383.135,79.75,398.814,79.75,409.936,79.75C421.059,79.75,427.626,79.75,430.909,79.75L434.192,79.75"/><path marker-end="url(#mermaid-svg-1769129106823-ma7dlwfro_flowchart-pointEnd)" style="fill:none;" class="edge-thickness-normal edge-pattern-solid flowchart-link LS-dec2_t LE-loss_l1" id="L-dec2_t-loss_l1-0" d="M502.266,79.75L506.432,79.75C510.599,79.75,518.932,79.75,532.063,79.75C545.194,79.75,563.122,79.75,581.942,81.846C600.762,83.942,620.472,88.133,630.328,90.229L640.183,92.325"/><path marker-end="url(#mermaid-svg-1769129106823-ma7dlwfro_flowchart-pointEnd)" style="fill:none;stroke-width:2px;stroke-dasharray:3;" class="edge-thickness-normal edge-pattern-dotted flowchart-link LS-x1_t LE-loss_l1" id="L-x1_t-loss_l1-0" d="M193.429,164.125L198.916,175.938C204.403,187.75,215.377,211.375,228.704,223.188C242.03,235,257.708,235,273.387,235C289.065,235,304.743,235,320.422,235C336.1,235,351.779,235,367.457,235C383.135,235,398.814,235,416.051,235C433.288,235,452.083,235,470.879,235C489.674,235,508.47,235,526.832,223.938C545.194,212.875,563.122,190.75,584.522,171.886C605.922,153.022,630.794,137.419,643.23,129.618L655.666,121.817"/><path marker-end="url(#mermaid-svg-1769129106823-ma7dlwfro_flowchart-pointEnd)" style="fill:none;" class="edge-thickness-normal edge-pattern-solid flowchart-link LS-x1_t LE-dec1_t" id="L-x1_t-dec1_t-0" d="M201.352,153.5L205.518,155.125C209.685,156.75,218.018,160,230.024,161.625C242.03,163.25,257.708,163.25,273.387,163.25C289.065,163.25,304.743,163.25,320.422,163.25C336.1,163.25,351.779,163.25,367.457,163.25C383.135,163.25,398.814,163.25,409.936,163.25C421.059,163.25,427.626,163.25,430.909,163.25L434.192,163.25"/><path marker-end="url(#mermaid-svg-1769129106823-ma7dlwfro_flowchart-pointEnd)" style="fill:none;" class="edge-thickness-normal edge-pattern-solid flowchart-link LS-dec1_t LE-loss_lm" id="L-dec1_t-loss_lm-0" d="M502.266,163.25L506.432,163.25C510.599,163.25,518.932,163.25,532.063,169.021C545.194,174.792,563.122,186.333,584.522,199.906C605.922,213.478,630.794,229.081,643.23,236.882L655.666,244.683"/><path marker-end="url(#mermaid-svg-1769129106823-ma7dlwfro_flowchart-pointEnd)" style="fill:none;stroke-width:2px;stroke-dasharray:3;" class="edge-thickness-normal edge-pattern-dotted flowchart-link LS-tok_t LE-loss_lm" id="L-tok_t-loss_lm-0" d="M107.538,241.75L113.772,247.375C120.007,253,132.476,264.25,145.495,269.875C158.513,275.5,172.081,275.5,185.648,275.5C199.216,275.5,212.784,275.5,227.407,275.5C242.03,275.5,257.708,275.5,273.387,275.5C289.065,275.5,304.743,275.5,320.422,275.5C336.1,275.5,351.779,275.5,367.457,275.5C383.135,275.5,398.814,275.5,416.051,275.5C433.288,275.5,452.083,275.5,470.879,275.5C489.674,275.5,508.47,275.5,526.832,275.5C545.194,275.5,563.122,275.5,580.172,274.64C597.222,273.781,613.394,272.061,621.48,271.201L629.566,270.342"/></g><g class="edgeLabels"><g class="edgeLabel"><g transform="translate(0, 0)" class="label"><rect height="0" width="0" ry="0" rx="0"/><text style=""><tspan class="row" x="0" dy="1em" xml:space="preserve"/></text></g></g><g class="edgeLabel"><g transform="translate(0, 0)" class="label"><rect height="0" width="0" ry="0" rx="0"/><text style=""><tspan class="row" x="0" dy="1em" xml:space="preserve"/></text></g></g><g transform="translate(367.45703125, 79.75)" class="edgeLabel"><g transform="translate(-18.65234375, -9.25)" class="label"><rect height="18.5" width="37.3046875" ry="0" rx="0"/><text style=""><tspan class="row" x="0" dy="1em" xml:space="preserve">input</tspan></text></g></g><g transform="translate(581.05078125, 79.75)" class="edgeLabel"><g transform="translate(-28.78515625, -9.25)" class="label"><rect height="18.5" width="57.5703125" ry="0" rx="0"/><text style=""><tspan class="row" x="0" dy="1em" xml:space="preserve">pred_x1</tspan></text></g></g><g transform="translate(367.45703125, 235)" class="edgeLabel"><g transform="translate(-22.03515625, -9.25)" class="label"><rect height="18.5" width="44.0703125" ry="0" rx="0"/><text style=""><tspan class="row" x="0" dy="1em" xml:space="preserve">target</tspan></text></g></g><g transform="translate(273.38671875, 163.25)" class="edgeLabel"><g transform="translate(-18.65234375, -9.25)" class="label"><rect height="18.5" width="37.3046875" ry="0" rx="0"/><text style=""><tspan class="row" x="0" dy="1em" xml:space="preserve">input</tspan></text></g></g><g transform="translate(581.05078125, 197.875)" class="edgeLabel"><g transform="translate(-19.359375, -9.25)" class="label"><rect height="18.5" width="38.71875" ry="0" rx="0"/><text style=""><tspan class="row" x="0" dy="1em" xml:space="preserve">logits</tspan></text></g></g><g transform="translate(273.38671875, 275.5)" class="edgeLabel"><g transform="translate(-22.03515625, -9.25)" class="label"><rect height="18.5" width="44.0703125" ry="0" rx="0"/><text style=""><tspan class="row" x="0" dy="1em" xml:space="preserve">target</tspan></text></g></g></g><g class="nodes"><g transform="translate(185.6484375, 147.375)" id="flowchart-x1_t-1254" class="node default default flowchart-label"><rect height="33.5" width="31.40625" y="-16.75" x="-15.703125" ry="0" rx="0" style="" class="basic label-container"/><g transform="translate(0, -9.25)" style="" class="label"><rect/><text style=""><tspan class="row" x="0" dy="1em" xml:space="preserve">x1</tspan></text></g></g><g transform="translate(88.97265625, 225)" id="flowchart-tok_t-1253" class="node default default flowchart-label"><rect height="33.5" width="61.9453125" y="-16.75" x="-30.97265625" ry="0" rx="0" style="" class="basic label-container"/><g transform="translate(0, -9.25)" style="" class="label"><rect/><text style=""><tspan class="row" x="0" dy="1em" xml:space="preserve">tokens</tspan></text></g></g><g transform="translate(273.38671875, 79.75)" id="flowchart-x2_t-1256" class="node default default flowchart-label"><rect height="33.5" width="31.40625" y="-16.75" x="-15.703125" ry="0" rx="0" style="" class="basic label-container"/><g transform="translate(0, -9.25)" style="" class="label"><rect/><text style=""><tspan class="row" x="0" dy="1em" xml:space="preserve">x2</tspan></text></g></g><g transform="translate(470.87890625, 79.75)" id="flowchart-dec2_t-1257" class="node default default flowchart-label"><rect height="33.5" width="62.7734375" y="-16.75" x="-31.38671875" ry="0" rx="0" style="" class="basic label-container"/><g transform="translate(0, -9.25)" style="" class="label"><rect/><text style=""><tspan class="row" x="0" dy="1em" xml:space="preserve">Dec L2</tspan></text></g></g><g transform="translate(686.85546875, 102.25)" id="flowchart-loss_l1-1261" class="node default default flowchart-label"><rect height="33.5" width="82.9765625" y="-16.75" x="-41.48828125" ry="0" rx="0" style="" class="basic label-container"/><g transform="translate(0, -9.25)" style="" class="label"><rect/><text style=""><tspan class="row" x="0" dy="1em" xml:space="preserve">MSE vs x1</tspan></text></g></g><g transform="translate(470.87890625, 163.25)" id="flowchart-dec1_t-1258" class="node default default flowchart-label"><rect height="33.5" width="62.7734375" y="-16.75" x="-31.38671875" ry="0" rx="0" style="" class="basic label-container"/><g transform="translate(0, -9.25)" style="" class="label"><rect/><text style=""><tspan class="row" x="0" dy="1em" xml:space="preserve">Dec L1</tspan></text></g></g><g transform="translate(686.85546875, 264.25)" id="flowchart-loss_lm-1266" class="node default default flowchart-label"><rect height="33.5" width="104.0390625" y="-16.75" x="-52.01953125" ry="0" rx="0" style="" class="basic label-container"/><g transform="translate(0, -9.25)" style="" class="label"><rect/><text style=""><tspan class="row" x="0" dy="1em" xml:space="preserve">CE vs tokens</tspan></text></g></g></g></g></g></g></g></svg>